<?xml version="1.0" standalone="no"?>
<!DOCTYPE svg PUBLIC "-//W3C//DTD SVG 20010904//EN"
 "http://www.w3.org/TR/2001/REC-SVG-20010904/DTD/svg10.dtd">
<svg version="1.0" xmlns="http://www.w3.org/2000/svg"
 width="700.000000pt" height="700.000000pt" viewBox="0 0 700.000000 700.000000"
 preserveAspectRatio="xMidYMid meet">
<metadata>
Created by potrace 1.11, written by Peter Selinger 2001-2013
</metadata>
<g transform="translate(0.000000,700.000000) scale(0.100000,-0.100000)"
fill="#000000" stroke="none">
<path d="M3503 6981 c-73 -20 -142 -54 -200 -97 -17 -13 -179 -171 -360 -352
l-328 -328 -60 19 c-77 24 -149 43 -200 52 -22 4 -49 9 -61 11 -108 20 -332
25 -449 10 -68 -9 -129 -18 -150 -23 -11 -2 -29 -6 -40 -8 -65 -14 -253 -82
-333 -120 -145 -71 -301 -176 -407 -276 l-39 -37 414 -414 415 -415 -71 -69
c-117 -115 -178 -265 -173 -429 15 -512 629 -755 992 -393 37 38 69 68 71 68
2 0 158 -154 345 -342 l341 -343 46 50 c220 243 364 541 414 855 6 41 14 86
16 100 5 31 5 270 0 325 -11 113 -59 322 -90 396 -5 11 38 59 149 170 86 84
158 156 160 157 8 8 39 -19 192 -164 142 -135 208 -198 338 -319 22 -20 76
-71 120 -113 100 -95 203 -191 379 -357 76 -71 158 -148 181 -170 23 -22 76
-71 117 -110 216 -204 392 -369 468 -441 47 -44 104 -99 128 -121 l43 -40 -17
-59 c-33 -115 -22 -265 29 -387 9 -20 17 -41 17 -45 1 -4 8 -14 16 -23 15 -17
-38 -98 -531 -804 -42 -60 -198 -285 -346 -500 -148 -214 -292 -422 -320 -462
l-50 -72 -52 20 c-77 32 -173 57 -252 67 -71 10 -246 8 -300 -2 -65 -12 -80
-16 -132 -31 -251 -73 -497 -279 -614 -515 -62 -125 -109 -305 -109 -416 0
-39 -3 -44 -22 -45 -13 0 -582 -1 -1265 -2 -1237 -2 -1242 -2 -1269 -23 -62
-46 -69 -64 -69 -197 0 -113 2 -125 24 -156 47 -66 -142 -61 2459 -61 l2369 0
33 23 c59 39 71 72 71 190 -1 115 -3 128 -37 173 -28 39 -80 53 -184 51 l-75
-2 1 60 c0 33 -3 76 -7 95 -4 19 -10 50 -14 68 -8 49 -51 174 -75 223 -12 24
-47 81 -76 126 -30 44 -54 84 -54 86 0 3 71 108 158 234 247 357 380 549 609
881 117 169 216 312 221 317 4 6 48 69 97 140 176 257 179 260 211 258 16 -1
56 -2 89 -3 255 -7 486 158 566 402 34 103 34 252 0 356 -101 312 -436 479
-747 372 l-53 -19 -54 52 c-47 46 -235 222 -337 318 -60 55 -211 198 -296 278
-44 42 -150 141 -235 221 -202 190 -306 288 -345 325 -27 26 -208 196 -300
282 -16 15 -98 92 -181 171 -83 78 -160 151 -172 161 -28 24 -27 31 10 77 41
50 93 164 109 236 8 35 11 93 7 155 -10 181 -61 277 -239 454 -182 181 -271
226 -458 235 -84 3 -120 0 -177 -15z"/>
</g>
</svg>
